<mxfile host="app.diagrams.net" agent="Mozilla/5.0 (Macintosh; Intel Mac OS X 10_15_7) AppleWebKit/537.36 (KHTML, like Gecko) Chrome/128.0.0.0 Safari/537.36 Edg/128.0.0.0" version="24.7.17">
  <diagram name="第 1 页" id="lFLhHVhT0wKrV0tR7JXV">
    <mxGraphModel dx="607" dy="451" grid="1" gridSize="10" guides="1" tooltips="1" connect="1" arrows="1" fold="1" page="1" pageScale="1" pageWidth="827" pageHeight="1169" math="0" shadow="0">
      <root>
        <mxCell id="0" />
        <mxCell id="1" parent="0" />
        <mxCell id="jPXkN1_jAsjVnWGqiOJD-2" value="" style="rounded=0;whiteSpace=wrap;html=1;fillColor=default;" vertex="1" parent="1">
          <mxGeometry x="290" y="250" width="130" height="230" as="geometry" />
        </mxCell>
        <mxCell id="jPXkN1_jAsjVnWGqiOJD-21" value="" style="rounded=0;whiteSpace=wrap;html=1;fillColor=default;" vertex="1" parent="1">
          <mxGeometry x="290" y="560" width="130" height="220" as="geometry" />
        </mxCell>
        <mxCell id="jPXkN1_jAsjVnWGqiOJD-30" value="" style="rounded=0;whiteSpace=wrap;html=1;fillColor=default;" vertex="1" parent="1">
          <mxGeometry x="530" y="560" width="130" height="220" as="geometry" />
        </mxCell>
        <mxCell id="jPXkN1_jAsjVnWGqiOJD-51" value="" style="rounded=0;whiteSpace=wrap;html=1;fillColor=default;" vertex="1" parent="1">
          <mxGeometry x="530" y="860" width="140" height="290" as="geometry" />
        </mxCell>
        <mxCell id="jPXkN1_jAsjVnWGqiOJD-52" value="" style="rounded=0;whiteSpace=wrap;html=1;fillColor=default;" vertex="1" parent="1">
          <mxGeometry x="290" y="860" width="130" height="290" as="geometry" />
        </mxCell>
        <mxCell id="jPXkN1_jAsjVnWGqiOJD-80" style="edgeStyle=orthogonalEdgeStyle;rounded=0;orthogonalLoop=1;jettySize=auto;html=1;exitX=0;exitY=0.25;exitDx=0;exitDy=0;entryX=1;entryY=0.5;entryDx=0;entryDy=0;dashed=1;dashPattern=1 2;" edge="1" parent="1" source="jPXkN1_jAsjVnWGqiOJD-73" target="jPXkN1_jAsjVnWGqiOJD-78">
          <mxGeometry relative="1" as="geometry">
            <Array as="points">
              <mxPoint x="540" y="957" />
              <mxPoint x="540" y="995" />
            </Array>
          </mxGeometry>
        </mxCell>
        <mxCell id="jPXkN1_jAsjVnWGqiOJD-89" value="" style="rounded=0;whiteSpace=wrap;html=1;strokeColor=none;" vertex="1" parent="1">
          <mxGeometry x="513" y="990" width="14" height="10" as="geometry" />
        </mxCell>
        <mxCell id="jPXkN1_jAsjVnWGqiOJD-10" value="" style="rounded=1;whiteSpace=wrap;html=1;fillColor=default;dashed=1;" vertex="1" parent="1">
          <mxGeometry x="332" y="320" width="76" height="30" as="geometry" />
        </mxCell>
        <mxCell id="jPXkN1_jAsjVnWGqiOJD-13" value="Other Tasks" style="rounded=1;whiteSpace=wrap;html=1;fillColor=default;dashed=1;" vertex="1" parent="1">
          <mxGeometry x="323.5" y="330" width="76" height="30" as="geometry" />
        </mxCell>
        <mxCell id="jPXkN1_jAsjVnWGqiOJD-8" value="" style="edgeStyle=orthogonalEdgeStyle;rounded=0;orthogonalLoop=1;jettySize=auto;html=1;" edge="1" parent="1" source="jPXkN1_jAsjVnWGqiOJD-4" target="jPXkN1_jAsjVnWGqiOJD-6">
          <mxGeometry relative="1" as="geometry" />
        </mxCell>
        <mxCell id="jPXkN1_jAsjVnWGqiOJD-4" value="compute()" style="rounded=1;whiteSpace=wrap;html=1;" vertex="1" parent="1">
          <mxGeometry x="310" y="280" width="90" height="30" as="geometry" />
        </mxCell>
        <mxCell id="jPXkN1_jAsjVnWGqiOJD-5" value="Main Thread" style="text;html=1;align=center;verticalAlign=middle;whiteSpace=wrap;rounded=0;fillColor=none;" vertex="1" parent="1">
          <mxGeometry x="290" y="250" width="130" height="20" as="geometry" />
        </mxCell>
        <mxCell id="jPXkN1_jAsjVnWGqiOJD-6" value="" style="html=1;whiteSpace=wrap;shape=isoCube2;backgroundOutline=1;isoAngle=15;" vertex="1" parent="1">
          <mxGeometry x="323.5" y="390" width="63" height="70" as="geometry" />
        </mxCell>
        <mxCell id="jPXkN1_jAsjVnWGqiOJD-9" value="&lt;font style=&quot;font-size: 11px;&quot;&gt;Heavy Task&lt;/font&gt;" style="text;html=1;align=center;verticalAlign=middle;whiteSpace=wrap;rounded=0;fillColor=none;" vertex="1" parent="1">
          <mxGeometry x="290" y="460" width="130" height="20" as="geometry" />
        </mxCell>
        <mxCell id="jPXkN1_jAsjVnWGqiOJD-15" value="" style="endArrow=none;html=1;rounded=0;" edge="1" parent="1">
          <mxGeometry width="50" height="50" relative="1" as="geometry">
            <mxPoint x="369.84" y="380" as="sourcePoint" />
            <mxPoint x="369.84" y="360" as="targetPoint" />
          </mxGeometry>
        </mxCell>
        <mxCell id="jPXkN1_jAsjVnWGqiOJD-16" value="" style="shape=umlDestroy;whiteSpace=wrap;html=1;strokeWidth=3;targetShapes=umlLifeline;" vertex="1" parent="1">
          <mxGeometry x="365" y="375" width="10" height="10" as="geometry" />
        </mxCell>
        <mxCell id="jPXkN1_jAsjVnWGqiOJD-19" value="" style="rounded=1;whiteSpace=wrap;html=1;fillColor=default;" vertex="1" parent="1">
          <mxGeometry x="321.25" y="700" width="76" height="30" as="geometry" />
        </mxCell>
        <mxCell id="jPXkN1_jAsjVnWGqiOJD-20" value="Other Tasks" style="rounded=1;whiteSpace=wrap;html=1;fillColor=default;" vertex="1" parent="1">
          <mxGeometry x="312.75" y="710" width="76" height="30" as="geometry" />
        </mxCell>
        <mxCell id="jPXkN1_jAsjVnWGqiOJD-37" style="edgeStyle=orthogonalEdgeStyle;rounded=0;orthogonalLoop=1;jettySize=auto;html=1;entryX=0;entryY=0.5;entryDx=0;entryDy=0;dashed=1;dashPattern=1 2;exitX=1.002;exitY=0.189;exitDx=0;exitDy=0;exitPerimeter=0;" edge="1" parent="1" source="jPXkN1_jAsjVnWGqiOJD-23" target="jPXkN1_jAsjVnWGqiOJD-36">
          <mxGeometry relative="1" as="geometry" />
        </mxCell>
        <mxCell id="jPXkN1_jAsjVnWGqiOJD-23" value="runCompute()" style="rounded=1;whiteSpace=wrap;html=1;" vertex="1" parent="1">
          <mxGeometry x="310" y="590" width="90" height="80" as="geometry" />
        </mxCell>
        <mxCell id="jPXkN1_jAsjVnWGqiOJD-24" value="Main Thread" style="text;html=1;align=center;verticalAlign=middle;whiteSpace=wrap;rounded=0;fillColor=none;" vertex="1" parent="1">
          <mxGeometry x="290" y="560" width="130" height="20" as="geometry" />
        </mxCell>
        <mxCell id="jPXkN1_jAsjVnWGqiOJD-25" value="" style="html=1;whiteSpace=wrap;shape=isoCube2;backgroundOutline=1;isoAngle=15;" vertex="1" parent="1">
          <mxGeometry x="568" y="690" width="54" height="60" as="geometry" />
        </mxCell>
        <mxCell id="jPXkN1_jAsjVnWGqiOJD-47" style="edgeStyle=orthogonalEdgeStyle;rounded=0;orthogonalLoop=1;jettySize=auto;html=1;dashed=1;dashPattern=1 2;" edge="1" parent="1" source="jPXkN1_jAsjVnWGqiOJD-26">
          <mxGeometry relative="1" as="geometry">
            <mxPoint x="400" y="660" as="targetPoint" />
            <Array as="points">
              <mxPoint x="520" y="760" />
              <mxPoint x="520" y="660" />
            </Array>
          </mxGeometry>
        </mxCell>
        <mxCell id="jPXkN1_jAsjVnWGqiOJD-26" value="&lt;font style=&quot;font-size: 11px;&quot;&gt;Heavy Task&lt;/font&gt;" style="text;html=1;align=center;verticalAlign=middle;whiteSpace=wrap;rounded=0;fillColor=none;" vertex="1" parent="1">
          <mxGeometry x="560" y="750" width="70" height="20" as="geometry" />
        </mxCell>
        <mxCell id="jPXkN1_jAsjVnWGqiOJD-29" value="Worker Thread" style="text;html=1;align=center;verticalAlign=middle;whiteSpace=wrap;rounded=0;fillColor=none;" vertex="1" parent="1">
          <mxGeometry x="530" y="560" width="130" height="20" as="geometry" />
        </mxCell>
        <mxCell id="jPXkN1_jAsjVnWGqiOJD-34" value="" style="endArrow=classic;html=1;rounded=0;" edge="1" parent="1">
          <mxGeometry width="50" height="50" relative="1" as="geometry">
            <mxPoint x="354.77" y="740" as="sourcePoint" />
            <mxPoint x="355" y="770" as="targetPoint" />
          </mxGeometry>
        </mxCell>
        <mxCell id="jPXkN1_jAsjVnWGqiOJD-43" value="" style="edgeStyle=orthogonalEdgeStyle;rounded=0;orthogonalLoop=1;jettySize=auto;html=1;" edge="1" parent="1" source="jPXkN1_jAsjVnWGqiOJD-36" target="jPXkN1_jAsjVnWGqiOJD-41">
          <mxGeometry relative="1" as="geometry" />
        </mxCell>
        <mxCell id="jPXkN1_jAsjVnWGqiOJD-36" value="message handler" style="rounded=1;whiteSpace=wrap;html=1;" vertex="1" parent="1">
          <mxGeometry x="545" y="590" width="100" height="30" as="geometry" />
        </mxCell>
        <mxCell id="jPXkN1_jAsjVnWGqiOJD-38" value="&lt;i&gt;title&lt;/i&gt;" style="text;html=1;align=center;verticalAlign=middle;whiteSpace=wrap;rounded=0;" vertex="1" parent="1">
          <mxGeometry x="445" y="585" width="60" height="20" as="geometry" />
        </mxCell>
        <mxCell id="jPXkN1_jAsjVnWGqiOJD-40" value="&lt;i&gt;compute&lt;/i&gt;" style="text;html=1;align=center;verticalAlign=middle;whiteSpace=wrap;rounded=0;" vertex="1" parent="1">
          <mxGeometry x="445" y="605" width="60" height="20" as="geometry" />
        </mxCell>
        <mxCell id="jPXkN1_jAsjVnWGqiOJD-41" value="compute()" style="rounded=1;whiteSpace=wrap;html=1;" vertex="1" parent="1">
          <mxGeometry x="545" y="640" width="100" height="30" as="geometry" />
        </mxCell>
        <mxCell id="jPXkN1_jAsjVnWGqiOJD-45" style="edgeStyle=orthogonalEdgeStyle;rounded=0;orthogonalLoop=1;jettySize=auto;html=1;entryX=0.5;entryY=0;entryDx=0;entryDy=0;entryPerimeter=0;" edge="1" parent="1" source="jPXkN1_jAsjVnWGqiOJD-41" target="jPXkN1_jAsjVnWGqiOJD-25">
          <mxGeometry relative="1" as="geometry" />
        </mxCell>
        <mxCell id="jPXkN1_jAsjVnWGqiOJD-48" value="&lt;i&gt;result&lt;/i&gt;" style="text;html=1;align=center;verticalAlign=middle;whiteSpace=wrap;rounded=0;" vertex="1" parent="1">
          <mxGeometry x="445" y="640" width="60" height="20" as="geometry" />
        </mxCell>
        <mxCell id="jPXkN1_jAsjVnWGqiOJD-49" value="&lt;i&gt;computeReturn&lt;/i&gt;" style="text;html=1;align=center;verticalAlign=middle;whiteSpace=wrap;rounded=0;" vertex="1" parent="1">
          <mxGeometry x="445" y="660" width="60" height="20" as="geometry" />
        </mxCell>
        <mxCell id="jPXkN1_jAsjVnWGqiOJD-50" value="Message" style="text;html=1;align=center;verticalAlign=middle;whiteSpace=wrap;rounded=0;fillColor=none;" vertex="1" parent="1">
          <mxGeometry x="430" y="560" width="90" height="20" as="geometry" />
        </mxCell>
        <mxCell id="jPXkN1_jAsjVnWGqiOJD-53" value="" style="rounded=1;whiteSpace=wrap;html=1;fillColor=default;" vertex="1" parent="1">
          <mxGeometry x="321.25" y="1086" width="76" height="30" as="geometry" />
        </mxCell>
        <mxCell id="jPXkN1_jAsjVnWGqiOJD-54" value="Other Tasks" style="rounded=1;whiteSpace=wrap;html=1;fillColor=default;" vertex="1" parent="1">
          <mxGeometry x="312.75" y="1096" width="76" height="30" as="geometry" />
        </mxCell>
        <mxCell id="jPXkN1_jAsjVnWGqiOJD-55" style="edgeStyle=orthogonalEdgeStyle;rounded=0;orthogonalLoop=1;jettySize=auto;html=1;entryX=0;entryY=0.5;entryDx=0;entryDy=0;dashed=1;dashPattern=1 2;exitX=1.002;exitY=0.189;exitDx=0;exitDy=0;exitPerimeter=0;" edge="1" parent="1" source="jPXkN1_jAsjVnWGqiOJD-56" target="jPXkN1_jAsjVnWGqiOJD-64">
          <mxGeometry relative="1" as="geometry" />
        </mxCell>
        <mxCell id="jPXkN1_jAsjVnWGqiOJD-56" value="&lt;i&gt;async&lt;/i&gt;&lt;div&gt;runCompute()&lt;/div&gt;" style="rounded=1;whiteSpace=wrap;html=1;" vertex="1" parent="1">
          <mxGeometry x="305" y="890" width="100" height="80" as="geometry" />
        </mxCell>
        <mxCell id="jPXkN1_jAsjVnWGqiOJD-57" value="Main Thread" style="text;html=1;align=center;verticalAlign=middle;whiteSpace=wrap;rounded=0;fillColor=none;" vertex="1" parent="1">
          <mxGeometry x="290" y="860" width="130" height="20" as="geometry" />
        </mxCell>
        <mxCell id="jPXkN1_jAsjVnWGqiOJD-58" value="" style="html=1;whiteSpace=wrap;shape=isoCube2;backgroundOutline=1;isoAngle=15;" vertex="1" parent="1">
          <mxGeometry x="577.5" y="1086" width="45" height="50" as="geometry" />
        </mxCell>
        <mxCell id="jPXkN1_jAsjVnWGqiOJD-60" value="&lt;font style=&quot;font-size: 11px;&quot;&gt;Heavy Task&lt;/font&gt;" style="text;html=1;align=center;verticalAlign=middle;whiteSpace=wrap;rounded=0;fillColor=none;" vertex="1" parent="1">
          <mxGeometry x="565" y="1130" width="70" height="20" as="geometry" />
        </mxCell>
        <mxCell id="jPXkN1_jAsjVnWGqiOJD-61" value="Worker Thread" style="text;html=1;align=center;verticalAlign=middle;whiteSpace=wrap;rounded=0;fillColor=none;" vertex="1" parent="1">
          <mxGeometry x="535" y="860" width="130" height="20" as="geometry" />
        </mxCell>
        <mxCell id="jPXkN1_jAsjVnWGqiOJD-62" value="" style="endArrow=classic;html=1;rounded=0;" edge="1" parent="1">
          <mxGeometry width="50" height="50" relative="1" as="geometry">
            <mxPoint x="354.77" y="1126" as="sourcePoint" />
            <mxPoint x="355" y="1146" as="targetPoint" />
          </mxGeometry>
        </mxCell>
        <mxCell id="jPXkN1_jAsjVnWGqiOJD-75" value="" style="edgeStyle=orthogonalEdgeStyle;rounded=0;orthogonalLoop=1;jettySize=auto;html=1;" edge="1" parent="1" source="jPXkN1_jAsjVnWGqiOJD-64" target="jPXkN1_jAsjVnWGqiOJD-73">
          <mxGeometry relative="1" as="geometry" />
        </mxCell>
        <mxCell id="jPXkN1_jAsjVnWGqiOJD-64" value="message handler" style="rounded=1;whiteSpace=wrap;html=1;" vertex="1" parent="1">
          <mxGeometry x="550" y="890" width="100" height="30" as="geometry" />
        </mxCell>
        <mxCell id="jPXkN1_jAsjVnWGqiOJD-65" value="&lt;i&gt;itemID&lt;/i&gt;" style="text;html=1;align=center;verticalAlign=middle;whiteSpace=wrap;rounded=0;" vertex="1" parent="1">
          <mxGeometry x="445" y="885" width="60" height="20" as="geometry" />
        </mxCell>
        <mxCell id="jPXkN1_jAsjVnWGqiOJD-66" value="&lt;i&gt;compute&lt;/i&gt;" style="text;html=1;align=center;verticalAlign=middle;whiteSpace=wrap;rounded=0;" vertex="1" parent="1">
          <mxGeometry x="445" y="905" width="60" height="20" as="geometry" />
        </mxCell>
        <mxCell id="jPXkN1_jAsjVnWGqiOJD-67" value="compute()" style="rounded=1;whiteSpace=wrap;html=1;" vertex="1" parent="1">
          <mxGeometry x="550" y="1035" width="100" height="30" as="geometry" />
        </mxCell>
        <mxCell id="jPXkN1_jAsjVnWGqiOJD-68" style="edgeStyle=orthogonalEdgeStyle;rounded=0;orthogonalLoop=1;jettySize=auto;html=1;entryX=0.5;entryY=0;entryDx=0;entryDy=0;entryPerimeter=0;" edge="1" parent="1" source="jPXkN1_jAsjVnWGqiOJD-67" target="jPXkN1_jAsjVnWGqiOJD-58">
          <mxGeometry relative="1" as="geometry" />
        </mxCell>
        <mxCell id="jPXkN1_jAsjVnWGqiOJD-69" value="&lt;i&gt;result&lt;/i&gt;" style="text;html=1;align=center;verticalAlign=middle;whiteSpace=wrap;rounded=0;" vertex="1" parent="1">
          <mxGeometry x="445" y="930" width="60" height="20" as="geometry" />
        </mxCell>
        <mxCell id="jPXkN1_jAsjVnWGqiOJD-70" value="&lt;i&gt;computeReturn&lt;/i&gt;" style="text;html=1;align=center;verticalAlign=middle;whiteSpace=wrap;rounded=0;" vertex="1" parent="1">
          <mxGeometry x="445" y="950" width="60" height="20" as="geometry" />
        </mxCell>
        <mxCell id="jPXkN1_jAsjVnWGqiOJD-71" value="Message" style="text;html=1;align=center;verticalAlign=middle;whiteSpace=wrap;rounded=0;fillColor=none;" vertex="1" parent="1">
          <mxGeometry x="430" y="860" width="90" height="20" as="geometry" />
        </mxCell>
        <mxCell id="jPXkN1_jAsjVnWGqiOJD-72" value="wrapper::&lt;div&gt;getItemTitle&lt;/div&gt;" style="rounded=1;whiteSpace=wrap;html=1;" vertex="1" parent="1">
          <mxGeometry x="305" y="1030" width="100" height="40" as="geometry" />
        </mxCell>
        <mxCell id="jPXkN1_jAsjVnWGqiOJD-76" value="" style="edgeStyle=orthogonalEdgeStyle;rounded=0;orthogonalLoop=1;jettySize=auto;html=1;" edge="1" parent="1" source="jPXkN1_jAsjVnWGqiOJD-73" target="jPXkN1_jAsjVnWGqiOJD-67">
          <mxGeometry relative="1" as="geometry" />
        </mxCell>
        <mxCell id="jPXkN1_jAsjVnWGqiOJD-73" value="&lt;div&gt;&lt;i&gt;async&lt;/i&gt;&lt;/div&gt;runGetItemTitle()" style="rounded=1;whiteSpace=wrap;html=1;" vertex="1" parent="1">
          <mxGeometry x="550" y="935" width="100" height="80" as="geometry" />
        </mxCell>
        <mxCell id="jPXkN1_jAsjVnWGqiOJD-79" value="" style="edgeStyle=orthogonalEdgeStyle;rounded=0;orthogonalLoop=1;jettySize=auto;html=1;" edge="1" parent="1" source="jPXkN1_jAsjVnWGqiOJD-78" target="jPXkN1_jAsjVnWGqiOJD-72">
          <mxGeometry relative="1" as="geometry" />
        </mxCell>
        <mxCell id="jPXkN1_jAsjVnWGqiOJD-78" value="message handler" style="rounded=1;whiteSpace=wrap;html=1;" vertex="1" parent="1">
          <mxGeometry x="305" y="980" width="100" height="30" as="geometry" />
        </mxCell>
        <mxCell id="jPXkN1_jAsjVnWGqiOJD-82" value="&lt;i&gt;itemID&lt;/i&gt;" style="text;html=1;align=center;verticalAlign=middle;whiteSpace=wrap;rounded=0;" vertex="1" parent="1">
          <mxGeometry x="445" y="975" width="60" height="20" as="geometry" />
        </mxCell>
        <mxCell id="jPXkN1_jAsjVnWGqiOJD-83" value="&lt;i&gt;getItemTitle&lt;/i&gt;" style="text;html=1;align=center;verticalAlign=middle;whiteSpace=wrap;rounded=0;" vertex="1" parent="1">
          <mxGeometry x="445" y="995" width="60" height="20" as="geometry" />
        </mxCell>
        <mxCell id="jPXkN1_jAsjVnWGqiOJD-84" style="edgeStyle=orthogonalEdgeStyle;rounded=0;orthogonalLoop=1;jettySize=auto;html=1;entryX=0;entryY=0.864;entryDx=0;entryDy=0;entryPerimeter=0;dashed=1;dashPattern=1 2;" edge="1" parent="1" source="jPXkN1_jAsjVnWGqiOJD-72" target="jPXkN1_jAsjVnWGqiOJD-73">
          <mxGeometry relative="1" as="geometry">
            <Array as="points">
              <mxPoint x="540" y="1050" />
              <mxPoint x="540" y="1004" />
              <mxPoint x="550" y="1004" />
            </Array>
          </mxGeometry>
        </mxCell>
        <mxCell id="jPXkN1_jAsjVnWGqiOJD-85" value="&lt;i&gt;title&lt;/i&gt;" style="text;html=1;align=center;verticalAlign=middle;whiteSpace=wrap;rounded=0;" vertex="1" parent="1">
          <mxGeometry x="445" y="1030" width="60" height="20" as="geometry" />
        </mxCell>
        <mxCell id="jPXkN1_jAsjVnWGqiOJD-86" value="&lt;i&gt;getItemTitleReturn&lt;/i&gt;" style="text;html=1;align=center;verticalAlign=middle;whiteSpace=wrap;rounded=0;" vertex="1" parent="1">
          <mxGeometry x="445" y="1050" width="60" height="20" as="geometry" />
        </mxCell>
        <mxCell id="jPXkN1_jAsjVnWGqiOJD-90" value="" style="rounded=0;whiteSpace=wrap;html=1;strokeColor=none;" vertex="1" parent="1">
          <mxGeometry x="513" y="1045" width="14" height="10" as="geometry" />
        </mxCell>
        <mxCell id="jPXkN1_jAsjVnWGqiOJD-59" style="edgeStyle=orthogonalEdgeStyle;rounded=0;orthogonalLoop=1;jettySize=auto;html=1;dashed=1;dashPattern=1 2;entryX=1;entryY=0.75;entryDx=0;entryDy=0;" edge="1" parent="1" source="jPXkN1_jAsjVnWGqiOJD-60" target="jPXkN1_jAsjVnWGqiOJD-56">
          <mxGeometry relative="1" as="geometry">
            <mxPoint x="400" y="960" as="targetPoint" />
            <Array as="points">
              <mxPoint x="520" y="1140" />
              <mxPoint x="520" y="950" />
            </Array>
          </mxGeometry>
        </mxCell>
        <mxCell id="jPXkN1_jAsjVnWGqiOJD-91" value="" style="rounded=0;whiteSpace=wrap;html=1;fillColor=default;" vertex="1" parent="1">
          <mxGeometry x="568" y="250" width="130" height="230" as="geometry" />
        </mxCell>
        <mxCell id="jPXkN1_jAsjVnWGqiOJD-95" value="compute()" style="rounded=1;whiteSpace=wrap;html=1;dashed=1;" vertex="1" parent="1">
          <mxGeometry x="588" y="340" width="90" height="30" as="geometry" />
        </mxCell>
        <mxCell id="jPXkN1_jAsjVnWGqiOJD-96" value="Worker Thread" style="text;html=1;align=center;verticalAlign=middle;whiteSpace=wrap;rounded=0;fillColor=none;" vertex="1" parent="1">
          <mxGeometry x="568" y="250" width="130" height="20" as="geometry" />
        </mxCell>
        <mxCell id="jPXkN1_jAsjVnWGqiOJD-97" value="" style="html=1;whiteSpace=wrap;shape=isoCube2;backgroundOutline=1;isoAngle=15;dashed=1;" vertex="1" parent="1">
          <mxGeometry x="601.5" y="390" width="63" height="70" as="geometry" />
        </mxCell>
        <mxCell id="jPXkN1_jAsjVnWGqiOJD-98" value="&lt;font style=&quot;font-size: 11px;&quot;&gt;Heavy Task&lt;/font&gt;" style="text;html=1;align=center;verticalAlign=middle;whiteSpace=wrap;rounded=0;fillColor=none;" vertex="1" parent="1">
          <mxGeometry x="568" y="460" width="130" height="20" as="geometry" />
        </mxCell>
        <mxCell id="jPXkN1_jAsjVnWGqiOJD-102" value="getItemData" style="rounded=1;whiteSpace=wrap;html=1;dashed=1;" vertex="1" parent="1">
          <mxGeometry x="588" y="280" width="90" height="30" as="geometry" />
        </mxCell>
        <mxCell id="jPXkN1_jAsjVnWGqiOJD-103" value="" style="shape=umlDestroy;whiteSpace=wrap;html=1;strokeWidth=3;targetShapes=umlLifeline;" vertex="1" parent="1">
          <mxGeometry x="622.5" y="300" width="20" height="20" as="geometry" />
        </mxCell>
      </root>
    </mxGraphModel>
  </diagram>
</mxfile>
